<?xml version="1.0" encoding="UTF-8" standalone="no"?>
<svg width="813px" height="198px" viewBox="0 0 813 198" version="1.1" xmlns="http://www.w3.org/2000/svg" xmlns:xlink="http://www.w3.org/1999/xlink">
    <!-- Generator: Sketch 46.2 (44496) - http://www.bohemiancoding.com/sketch -->
    <title>rescuetime-logo-black-type</title>
    <desc>Created with Sketch.</desc>
    <defs>
        <polygon id="path-1" points="0 586 930 586 930 0 0 0"></polygon>
        <path d="M188.060548,54.263663 L143.445754,54.263663 L143.445754,9.61005205 C143.445754,4.63930274 139.389863,0.662757534 134.506301,0.662757534 L62.9075617,0.662757534 C57.9411781,0.662757534 53.9680685,4.72216438 53.9680685,9.61005205 L53.9680685,54.263663 L9.35336164,54.263663 C4.38697534,54.263663 0.413865616,58.3230699 0.413865616,63.2108762 L0.413865616,134.871972 C0.413865616,139.842681 4.46974794,143.819253 9.35336164,143.819253 L53.9680685,143.819253 L53.9680685,188.472808 C53.9680685,193.443514 58.0239452,197.420087 62.9075617,197.420087 L134.506301,197.420087 C139.472739,197.420087 143.445754,193.360678 143.445754,188.472808 L143.445754,143.819253 L188.060548,143.819253 C193.02685,143.819253 197,139.759832 197,134.871972 L197,63.2108762 C197,58.2402082 192.94411,54.263663 188.060548,54.263663 Z" id="path-3"></path>
        <linearGradient x1="21.5119313%" y1="21.5456052%" x2="84.7916504%" y2="84.5606334%" id="linearGradient-5">
            <stop stop-color="#FFFFFF" offset="0%"></stop>
            <stop stop-color="#C0C9D2" offset="100%"></stop>
        </linearGradient>
    </defs>
    <g id="Page-1" stroke="none" stroke-width="1" fill="none" fill-rule="evenodd">
        <g transform="translate(-2.000000, 2.000000)">
            <path d="M249.1876,97.1026 L274.4066,97.1026 C281.0116,97.1026 285.6146,96.1016 288.0166,94.1006 C290.4186,92.0986 291.6196,88.2956 291.6196,82.6916 C291.6196,75.6866 290.7186,71.1826 288.9176,69.0816 C287.1156,66.9796 283.3136,65.8786 277.4086,65.8786 L249.1876,65.8786 L249.1876,97.1026 Z M240.4806,135.7316 L240.4806,58.4736 L277.2086,58.4736 C285.5146,58.4736 291.3196,60.0746 294.7216,63.3776 C298.1246,66.6796 299.8256,72.3836 299.8256,80.4906 C299.8256,87.5956 298.9246,92.5996 297.0236,95.4016 C295.2226,98.2036 291.6196,100.0046 286.4156,100.9056 L286.4156,101.1056 C294.6216,101.7056 298.7246,106.7096 298.7246,116.0166 L298.7246,135.7316 L290.0186,135.7316 L290.0186,117.9186 C290.0186,108.9116 286.1156,104.4076 278.3096,104.4076 L275.4076,104.4076 L249.1876,104.4076 L249.1876,135.7316 L240.4806,135.7316 Z" id="Fill-1" fill="#212121"></path>
            <path d="M348.1621,104.0078 L348.0621,101.5058 C348.0621,95.7018 347.0611,91.8988 345.1601,90.0968 C343.2581,88.2958 339.0551,87.4948 332.7501,87.4948 C326.3451,87.4948 322.1421,88.4958 320.2411,90.5978 C318.3391,92.6988 317.3391,97.2028 317.3391,104.1078 L348.1621,104.1078 L348.1621,104.0078 Z M348.1621,119.4188 L356.2681,119.4188 L356.3681,121.4208 C356.3681,127.0248 354.6671,131.0278 351.2641,133.2298 C347.8621,135.4318 341.8571,136.6318 333.2511,136.6318 C323.2431,136.6318 316.7381,134.8308 313.6361,131.1278 C310.5341,127.5258 308.9321,119.8198 308.9321,108.2108 C308.9321,97.4028 310.5341,90.1968 313.6361,86.4948 C316.7381,82.7918 322.9431,80.9908 332.0501,80.9908 C342.0571,80.9908 348.5621,82.5918 351.6651,85.7938 C354.7671,88.9968 356.2681,95.8018 356.2681,106.1098 L356.2681,110.3128 L317.3391,110.3128 C317.3391,118.8188 318.2391,124.3228 320.0411,126.6248 C321.8421,128.9268 326.1451,130.1278 332.8501,130.1278 C339.2551,130.1278 343.3581,129.5268 345.2601,128.4258 C347.1611,127.3258 348.1621,124.9238 348.1621,121.2208 L348.1621,119.4188 Z" id="Fill-3" fill="#212121"></path>
            <path d="M409.0079,95.8016 L401.1019,95.8016 C401.1019,91.9986 400.3009,89.6966 398.7999,88.7966 C397.2989,87.8956 393.2959,87.3956 386.9909,87.3956 C381.0869,87.3956 377.3839,87.8956 375.7829,88.7966 C374.1819,89.7966 373.3809,92.0986 373.3809,95.7016 C373.3809,101.2056 376.0829,104.1076 381.3869,104.4076 L387.7919,104.7086 L395.8979,105.1086 C405.7049,105.6086 410.6089,110.7126 410.6089,120.5206 C410.6089,126.6246 409.0079,130.7276 405.7049,133.0296 C402.5029,135.3316 396.4989,136.4326 387.8919,136.4326 C378.9849,136.4326 372.8809,135.3316 369.5779,133.2296 C366.2759,131.0286 364.5749,127.1256 364.5749,121.4206 L364.6749,118.5186 L372.8809,118.5186 L372.9809,121.0206 C372.9809,124.5236 373.8819,126.9246 375.6829,128.1256 C377.4839,129.3266 381.0869,129.9276 386.3909,129.9276 C392.8959,129.9276 397.1989,129.3266 399.3009,128.0256 C401.4019,126.8246 402.4029,124.2226 402.4029,120.2196 C402.4029,114.5156 399.8009,111.7136 394.5969,111.7136 C382.5879,111.7136 374.6819,110.7126 370.8789,108.6116 C367.0769,106.6096 365.1749,102.3066 365.1749,95.9016 C365.1749,89.7966 366.6759,85.7936 369.6789,83.7926 C372.6809,81.7906 378.6849,80.7906 387.5919,80.7906 C401.9029,80.7906 409.1079,85.0936 409.1079,93.8006 L409.1079,95.8016 L409.0079,95.8016 Z" id="Fill-5" fill="#212121"></path>
            <path d="M457.4443,116.2169 L465.3503,116.2169 L465.4503,119.1189 C465.4503,130.7279 457.8443,136.5319 442.7333,136.5319 C433.0263,136.5319 426.5213,134.7309 423.4183,131.0279 C420.3163,127.3249 418.7153,119.8199 418.7153,108.4109 C418.7153,97.7029 420.3163,90.3979 423.5183,86.5949 C426.7213,82.7919 432.7253,80.8909 441.7323,80.8909 C450.5393,80.8909 456.5433,82.1909 459.7463,84.7929 C462.9483,87.3949 464.5493,92.1989 464.5493,99.4039 L456.6433,99.4039 L456.6433,98.0029 C456.6433,93.7999 455.6433,90.9979 453.5413,89.5969 C451.4403,88.1959 447.3363,87.4949 441.1323,87.4949 C435.1273,87.4949 431.3243,88.7959 429.6233,91.4979 C427.9223,94.0999 427.1213,100.1049 427.1213,109.3119 C427.1213,118.3189 428.1223,124.0229 430.0233,126.4249 C431.9253,128.9269 436.5283,130.1279 443.6343,130.1279 C449.6383,130.1279 453.5413,129.3269 455.1423,127.7259 C456.6433,126.0239 457.4443,122.2219 457.4443,116.2169" id="Fill-7" fill="#212121"></path>
            <path d="M518.8906,81.5909 L518.8906,135.7319 L510.9846,135.7319 L511.5846,128.6259 L511.3846,128.4259 C508.5826,133.8299 502.7786,136.4319 493.6716,136.4319 C481.0616,136.4319 474.6576,130.1269 474.6576,117.5179 L474.6576,81.4909 L482.5636,81.4909 L482.5636,117.5179 C482.5636,122.4219 483.3636,125.7239 484.9646,127.3249 C486.5666,129.0269 489.7686,129.8269 494.5726,129.8269 C500.7766,129.8269 505.0806,128.6259 507.3816,126.1239 C509.6836,123.6229 510.8846,119.1189 510.8846,112.5139 L510.8846,81.4909 L518.8906,81.4909 L518.8906,81.5909 Z" id="Fill-9" fill="#212121"></path>
            <path d="M569.4286,104.0078 L569.3286,101.5058 C569.3286,95.7018 568.3276,91.8988 566.4266,90.0968 C564.5246,88.2958 560.3216,87.4948 554.0166,87.4948 C547.6116,87.4948 543.4086,88.4958 541.5076,90.5978 C539.6056,92.6988 538.6056,97.2028 538.6056,104.1078 L569.4286,104.1078 L569.4286,104.0078 Z M569.4286,119.4188 L577.5346,119.4188 L577.6346,121.4208 C577.6346,127.0248 575.9336,131.0278 572.5306,133.2298 C569.1286,135.4318 563.1236,136.6318 554.5176,136.6318 C544.5096,136.6318 538.0046,134.8308 534.9026,131.1278 C531.8006,127.5258 530.1996,119.8198 530.1996,108.2108 C530.1996,97.4028 531.8006,90.1968 534.9026,86.4948 C538.0046,82.7918 544.2096,80.9908 553.3166,80.9908 C563.3236,80.9908 569.8286,82.5918 572.9316,85.7938 C576.0336,88.9968 577.5346,95.8018 577.5346,106.1098 L577.5346,110.3128 L538.6056,110.3128 C538.6056,118.8188 539.5066,124.3228 541.3076,126.6248 C543.1086,128.9268 547.4116,130.1278 554.1166,130.1278 C560.5216,130.1278 564.6246,129.5268 566.5266,128.4258 C568.4276,127.3258 569.4286,124.9238 569.4286,121.2208 L569.4286,119.4188 Z" id="Fill-11" fill="#212121"></path>
            <polygon id="Fill-13" fill="#212121" points="618.9659 71.5833 618.9659 135.7313 604.2549 135.7313 604.2549 71.5833 581.9379 71.5833 581.9379 58.4733 641.9829 58.4733 641.9829 71.5833"></polygon>
            <mask id="mask-2" fill="white">
                <use xlink:href="#path-1"></use>
            </mask>
            <g id="Clip-16"></g>
            <path d="M647.287,135.732 L660.297,135.732 L660.297,81.591 L647.287,81.591 L647.287,135.732 Z M647.287,69.282 L660.297,69.282 L660.297,58.474 L647.287,58.474 L647.287,69.282 Z" id="Fill-15" fill="#212121" mask="url(#mask-2)"></path>
            <path d="M671.3053,81.5909 L684.3153,81.5909 L684.0153,89.8969 L684.3153,89.9969 C686.9173,83.9929 692.4213,80.9899 700.8273,80.9899 C710.6353,80.9899 716.0393,84.2929 717.1393,90.9979 L717.3403,90.9979 C719.8413,84.2929 725.4463,80.9899 734.0523,80.9899 C746.5623,80.9899 752.8663,87.2949 752.8663,99.9049 L752.8663,135.7319 L739.8573,135.7319 L739.8573,102.7069 C739.8573,95.0009 736.7543,91.1979 730.4503,91.1979 C722.5443,91.1979 718.6413,95.5009 718.6413,104.0079 L718.6413,135.6319 L705.6313,135.6319 L705.6313,102.2059 C705.6313,97.7029 705.0303,94.8009 703.8303,93.2999 C702.6283,91.8989 700.1273,91.1979 696.2243,91.1979 C688.2183,91.1979 684.3153,95.6009 684.3153,104.3079 L684.3153,135.6319 L671.3053,135.6319 L671.3053,81.5909 Z" id="Fill-17" fill="#212121" mask="url(#mask-2)"></path>
            <path d="M799.3016,103.1071 L799.2016,100.9051 C799.2016,96.6021 798.5016,93.8001 796.9996,92.4991 C795.4986,91.1981 792.2966,90.5981 787.2926,90.5981 C782.4886,90.5981 779.2866,91.3981 777.8856,92.8991 C776.3846,94.4001 775.6836,97.8031 775.6836,103.0071 L799.3016,103.0071 L799.3016,103.1071 Z M799.2016,118.4181 L812.2116,118.4181 L812.2116,120.5201 C812.2116,131.1281 804.3056,136.3321 788.3936,136.3321 C777.6856,136.3321 770.5796,134.5311 767.2776,130.8281 C763.9756,127.1251 762.2736,119.4191 762.2736,107.5101 C762.2736,97.0021 763.9756,89.8971 767.4776,86.2941 C770.9806,82.6921 777.6856,80.8901 787.7926,80.8901 C797.5006,80.8901 803.9056,82.6921 807.2076,86.1941 C810.5096,89.6971 812.1116,96.7021 812.1116,107.0101 L812.1116,111.0131 L775.5836,111.0131 C775.4836,112.2141 775.4836,113.0141 775.4836,113.4151 C775.4836,118.7191 776.2846,122.3211 777.9856,124.0231 C779.5866,125.8241 782.8896,126.7251 787.7926,126.7251 C792.5966,126.7251 795.5986,126.2241 797.0996,125.1231 C798.5016,124.1231 799.2016,121.9211 799.2016,118.4181 L799.2016,118.4181 Z" id="Fill-18" fill="#212121" mask="url(#mask-2)"></path>
        </g>
        <g>
            <g id="Group-3">
                <mask id="mask-4" fill="white">
                    <use xlink:href="#path-3"></use>
                </mask>
                <g id="Clip-2"></g>
                <polygon id="Fill-1" fill="url(#linearGradient-5)" mask="url(#mask-4)" points="0 198 197 198 197 0 0 0"></polygon>
            </g>
            <g id="Group-8">
                <path d="M188.060548,54.1808014 L143.445754,54.1808014 L143.445754,9.52719041 C143.445754,4.5564411 139.389863,0.57989589 134.506301,0.57989589 L62.9075617,0.57989589 C57.9411781,0.57989589 53.9680685,4.63930274 53.9680685,9.52719041 L53.9680685,54.1808014 L9.35336164,54.1808014 C4.38697534,54.1808014 0.413865616,58.2402082 0.413865616,63.1280281 L0.413865616,134.789124 C0.413865616,139.759832 4.46974794,143.736405 9.35336164,143.736405 L53.9680685,143.736405 L53.9680685,188.389952 C53.9680685,193.360678 58.0239452,197.337231 62.9075617,197.337231 L134.506301,197.337231 C139.472739,197.337231 143.445754,193.277822 143.445754,188.389952 L143.445754,143.736405 L188.060548,143.736405 C193.02685,143.736405 197,139.676984 197,134.789124 L197,63.1280281 C197,58.2402082 192.94411,54.1808014 188.060548,54.1808014 L188.060548,54.1808014 Z M188.143288,129.735567 C188.143288,132.469459 185.908357,134.789124 183.09411,134.789124 L134.257986,134.789124 L134.257986,183.66777 C134.257986,186.401666 132.02311,188.721336 129.208822,188.721336 L67.8739452,188.721336 C65.1424383,188.721336 62.8247945,186.484522 62.8247945,183.66777 L62.8247945,134.789124 L13.9886575,134.789124 C11.2571425,134.789124 8.93949589,132.552307 8.93949589,129.735567 L8.93949589,68.2644329 C8.93949589,65.5305411 11.1743699,63.2108762 13.9886575,63.2108762 L62.8247945,63.2108762 L62.8247945,14.3322164 C62.8247945,11.5983247 65.0596576,9.27860548 67.8739452,9.27860548 L129.291589,9.27860548 C132.02311,9.27860548 134.340753,11.515463 134.340753,14.3322164 L134.340753,63.2108762 L183.17685,63.2108762 C185.908357,63.2108762 188.226028,65.447693 188.226028,68.2644329 L188.226028,129.735567 L188.143288,129.735567 Z" id="Fill-4" fill="#D42328"></path>
                <path d="M169.767671,98.6686212 L151.80589,85.1648449 L154.537397,93.6979126 L114.475206,90.8811727 C115.716808,93.3665203 116.461767,96.1004121 116.461767,99 C116.461767,101.81674 115.799575,104.467784 114.723534,106.787448 L154.620137,103.805026 L151.97137,112.172384 L169.767671,98.6686212 L169.767671,98.6686212 Z" id="Fill-6" fill="#231F20"></path>
                <path d="M107.52226,98.3372425 L107.52226,97.9230156 L103.631932,33.3865973 L111.992014,36.0376274 L98.5,18.1430384 L85.0079863,36.120489 L93.5336164,33.3865973 L89.8088219,98.0058501 L89.8088219,98.1715463 L89.8088219,98.8343038 L89.8088219,98.9171519 C89.8088219,103.805026 93.7819315,107.864433 98.7483151,107.864433 C103.631932,107.864433 107.687808,103.887874 107.687808,98.9171519 L107.687808,98.8343038 L107.687808,98.8343038 L107.52226,98.3372425 L107.52226,98.3372425 Z" id="Fill-7" fill="#231F20"></path>
            </g>
        </g>
    </g>
</svg>